<svg xmlns="http://www.w3.org/2000/svg" style="display: none;">
  
    <symbol id="icon-down" viewBox="0 0 512 512">
      <path d="m67 143c0 0 189 183 189 183c0 0 190-183 190-183c8-9 16-9 25 0c9 8 9 16 0 25c0 0-203 201-203 201c-7 7-15 7-24 0c0 0-203-201-203-201c-9-9-9-17 0-25c8-8 17-8 26 0"/>
    </symbol>
  
    <symbol id="icon-facebook" viewBox="0 0 512 512">
      <path d="m451 37c7 0 13 2 17 7 5 4 7 10 7 17l0 390c0 7-2 13-7 17-4 5-10 7-17 7l-112 0 0-170 57 0 9-66-66 0 0-42c0-11 3-19 7-24 5-5 13-8 26-8l35 0 0-60c-12-1-29-2-51-2-26 0-46 7-62 23-15 15-23 36-23 64l0 49-57 0 0 66 57 0 0 170-210 0c-7 0-13-2-17-7-5-4-7-10-7-17l0-390c0-7 2-13 7-17 4-5 10-7 17-7z"/>
    </symbol>
  
    <symbol id="icon-instagram" viewBox="0 0 512 512">
      <path d="m426 407l0-185-39 0c4 12 6 25 6 38 0 24-6 46-18 66-13 20-29 36-50 48-21 12-44 18-69 18-37 0-69-13-96-39-27-26-40-57-40-93 0-13 2-26 6-38l-41 0 0 185c0 5 2 10 5 13 4 3 8 5 13 5l305 0c5 0 9-2 13-5 3-3 5-8 5-13z m-81-152c0-23-9-44-26-60-18-17-38-25-63-25-24 0-45 8-62 25-17 16-26 37-26 60 0 24 9 44 26 61 17 16 38 25 62 25 25 0 45-9 63-25 17-17 26-37 26-61z m81-103l0-47c0-5-2-10-6-14-4-4-8-6-14-6l-50 0c-5 0-10 2-14 6-4 4-5 9-5 14l0 47c0 6 1 10 5 14 4 4 9 6 14 6l50 0c6 0 10-2 14-6 4-4 6-8 6-14z m49-59l0 326c0 16-5 29-16 40-11 11-24 16-40 16l-326 0c-16 0-29-5-40-16-11-11-16-24-16-40l0-326c0-16 5-29 16-40 11-11 24-16 40-16l326 0c16 0 29 5 40 16 11 11 16 24 16 40z"/>
    </symbol>
  
    <symbol id="icon-twitter" viewBox="0 0 512 512">
      <path d="m481 117c-13 18-28 34-46 47 0 3 0 7 0 12 0 25-3 50-11 74-7 25-18 49-33 71-14 23-32 43-52 61-21 17-45 31-74 41-29 11-60 16-92 16-52 0-99-14-142-42 7 1 14 2 22 2 43 0 81-14 115-40-20 0-38-6-54-18-16-12-27-27-33-46 7 1 13 2 18 2 8 0 16-1 24-4-21-4-39-15-53-31-14-17-21-37-21-59l0-1c13 7 27 11 42 11-13-8-23-19-30-32-8-14-11-29-11-44 0-17 4-33 12-47 23 28 51 51 84 68 33 17 69 27 107 29-2-8-3-15-3-22 0-25 9-47 27-65 18-18 40-27 66-27 26 0 49 10 67 29 21-4 40-11 59-22-7 22-21 39-41 51 18-2 35-7 53-14z"/>
    </symbol>
  
    <symbol id="icon-twitch" viewBox="0 0 512 512">
      <path d="m256 124l0 124-41 0 0-124z m114 0l0 124-42 0 0-124z m0 217l72-72 0-228-341 0 0 300 93 0 0 62 62-62z m113-341l0 289-124 124-93 0-62 62-62 0 0-62-113 0 0-330 31-83z"/>
    </symbol>
  
    <symbol id="icon-youtube" viewBox="0 0 512 512">
      <path d="m366 256c0-7-3-12-9-15l-146-92c-6-4-12-4-19 0-6 3-9 8-9 16l0 182c0 8 3 13 9 16 3 2 6 3 9 3 4 0 7-1 10-3l146-92c6-3 9-8 9-15z m146 0c0 18 0 33 0 43 0 10-1 23-3 39-1 16-3 30-6 42-3 14-10 26-20 35-10 10-22 15-35 17-43 4-106 7-192 7-86 0-149-3-192-7-13-2-25-7-35-17-10-9-17-21-20-35-3-12-5-26-6-42-2-16-3-29-3-39 0-10 0-25 0-43 0-18 0-33 0-43 0-10 1-23 3-39 1-16 3-30 6-42 3-14 10-26 20-35 10-10 22-15 35-17 43-4 106-7 192-7 86 0 149 3 192 7 13 2 25 7 35 17 10 9 17 21 20 35 3 12 5 26 6 42 2 16 3 29 3 39 0 10 0 25 0 43z"/>
    </symbol>
  
    <symbol id="icon-spotify" viewBox="0 0 512 512">
      <path d="m359 346c0-6-3-11-9-15-37-22-79-33-128-33-25 0-52 4-82 10-8 2-12 7-12 15 0 4 2 7 4 10 3 2 6 4 10 4 1 0 5-1 11-2 25-6 48-8 69-8 43 0 81 10 114 29 3 2 6 3 9 3 4 0 7-1 10-3 2-3 4-6 4-10z m27-62c0-7-3-13-10-17-45-27-97-40-157-40-29 0-58 4-86 12-9 2-14 8-14 18 0 5 2 9 5 12 3 3 8 5 12 5 2 0 5-1 11-2 23-7 47-10 72-10 53 0 99 12 139 36 5 2 8 3 11 3 5 0 9-1 12-5 3-3 5-7 5-12z m31-71c0-9-4-15-12-20-24-13-51-24-83-31-32-7-65-11-98-11-39 0-74 5-104 14-5 1-8 3-11 7-3 3-5 8-5 14 0 6 2 11 6 15 4 4 9 6 15 6 2 0 6-1 11-3 26-7 55-10 88-10 30 0 60 3 88 9 29 7 53 16 73 28 4 2 8 3 11 3 6 0 11-2 15-6 4-4 6-9 6-15z m58 43c0 40-9 77-29 110-20 34-46 60-80 80-33 20-70 29-110 29-40 0-77-9-110-29-34-20-60-46-80-80-20-33-29-70-29-110 0-40 9-77 29-110 20-34 46-60 80-80 33-20 70-29 110-29 40 0 77 9 110 29 34 20 60 46 80 80 20 33 29 70 29 110z"/>
    </symbol>
  
    <symbol id="icon-itunes" viewBox="0 0 512 512">
      <path d="m453 347c-8 24-19 48-35 72-25 37-49 56-74 56-9 0-22-3-40-10-16-6-30-9-43-9-11 0-25 3-40 10-16 6-28 9-38 9-29 0-58-24-86-74-28-49-42-97-42-143 0-44 11-79 32-107 21-28 49-41 81-41 14 0 31 3 51 8 20 6 33 9 39 9 9 0 22-3 41-10 20-6 36-10 50-10 22 0 43 7 60 19 10 7 20 16 30 29-15 12-26 24-32 33-13 18-19 38-19 59 0 24 7 45 20 64 13 19 28 31 45 36z m-108-335c0 12-2 25-8 39-6 14-14 27-26 39-11 11-21 17-31 21-7 2-17 4-30 5 1-29 8-53 22-74 14-20 38-34 72-42 0 1 0 2 0 3 1 2 1 3 1 3 0 1 0 2 0 3 0 1 0 2 0 3z"/>
    </symbol>
  
    <symbol id="icon-soundcloud" viewBox="0 0 512 512">
      <path d="m151 392l4-69-4-149c0-2-1-4-2-5-2-1-3-2-5-2-2 0-3 1-5 2-1 1-2 3-2 5l-4 149 4 69c1 2 1 3 3 5 1 1 2 2 4 2 4 0 6-3 7-7z m84-8l4-61-4-167c0-3-1-5-4-7-1-1-3-1-4-1-2 0-3 0-5 1-2 2-3 4-3 7l-1 2-3 165c0 0 1 23 4 68l0 0c0 2 0 3 1 5 2 2 4 3 7 3 2 0 4-1 6-3 1-1 2-3 2-5z m-298-97l6 36-6 36c-1 2-1 3-3 3-1 0-2-1-2-3l-5-36 5-36c0-2 1-3 2-3 2 0 2 1 3 3z m24-23l8 59-8 58c0 2-1 3-2 3-2 0-3-1-3-3l-7-58 7-59c0-2 1-3 3-3 1 0 2 1 2 3z m80 129z m-53-140l7 70-7 68c0 2-1 3-3 3-2 0-3-1-4-3l-6-68 6-70c1-2 2-3 4-3 2 0 3 1 3 3z m27-2l6 72-6 70c-1 2-2 4-4 4-3 0-4-2-4-4l-6-70 6-72c0-2 1-4 4-4 2 0 3 2 4 4z m26 5l6 67-6 70c0 3-1 5-4 5-1 0-2 0-3-1-1-1-1-2-1-4l-6-70 6-67c0-1 0-2 1-3 1-1 2-1 3-1 3 0 4 1 4 4z m110 136z m-83-177l6 108-6 70c0 2 0 3-1 4-1 1-2 2-4 2-3 0-4-2-5-6l-5-70 5-108c1-4 2-6 5-6 2 0 3 1 4 2 1 1 1 2 1 4z m27-25l6 134-6 69c0 2 0 3-1 4-1 1-3 2-4 2-4 0-6-2-6-6l-5-69 5-134c0-4 2-5 6-5 1 0 3 0 4 1 1 1 1 2 1 4z m28-11l5 144-5 69c0 4-2 6-6 6-4 0-6-2-6-6l-5-69 5-144c0-2 0-4 2-5 1-1 2-2 4-2 2 0 3 1 4 2 1 1 2 3 2 5z m112 212z m-56-214l4 146-4 68c0 2-1 4-3 5-1 2-3 3-5 3-1 0-3-1-4-2-2-2-3-3-3-6l-4-68 4-146c0-2 1-3 2-5 2-1 4-2 5-2 2 0 4 1 5 2 2 2 3 3 3 5z m28 6l4 140-4 68c0 2-1 4-2 5-2 2-4 3-6 3-2 0-4-1-5-3-2-1-3-3-3-5l-3-68 3-140c0-2 1-4 3-6 1-1 3-2 5-2 2 0 4 1 5 2 2 2 3 4 3 6z m60 140l-4 66c0 3 0 5-2 7-2 1-4 2-6 2-3 0-5-1-7-2-1-2-2-4-3-7l-1-32-2-34 3-181 0-1c1-3 2-5 4-7 2-1 3-2 6-2 1 0 3 0 4 1 3 2 4 4 4 8z m318-5c0 22-8 41-24 57-15 16-34 24-57 24l-224 0c-3-1-5-2-7-4-1-1-2-3-2-6l0-257c0-4 3-7 8-9 16-7 33-10 52-10 37 0 69 13 96 38 27 25 43 56 46 92 10-4 20-6 31-6 23 0 42 8 57 24 16 15 24 35 24 57z"/>
    </symbol>
  
    <symbol id="icon-pinterest" viewBox="0 0 512 512">
      <path d="m393 37c23 0 42 8 58 24 16 16 24 35 24 58l0 274c0 23-8 42-24 58-16 16-35 24-58 24l-207 0c16-23 26-43 31-60 2-6 7-26 15-59 4 7 11 14 21 19 10 5 21 8 32 8 35 0 63-14 85-42 21-28 32-64 32-107 0-16-3-31-10-46-6-15-16-29-27-40-12-12-27-21-44-28-17-7-36-10-56-10-20 0-38 2-56 8-17 5-32 13-43 22-12 9-23 19-31 31-9 12-15 24-19 37-4 12-6 25-6 37 0 20 3 37 11 52 8 15 19 25 33 31 3 1 5 1 7 0 2-1 3-2 4-5 2-9 3-14 4-18 2-4 1-8-3-12-9-11-14-26-14-42 0-29 10-53 30-74 19-20 45-30 77-30 28 0 50 8 66 23 16 15 24 35 24 60 0 32-6 59-19 82-13 22-30 33-50 33-11 0-20-4-27-12-7-8-10-18-7-30 2-6 4-15 8-26 3-11 6-21 8-29 2-8 3-16 3-21 0-10-2-18-7-24-5-6-13-9-22-9-12 0-21 5-30 16-8 11-12 24-12 40 0 14 3 25 7 35l-28 118c-4 19-5 43-2 72l-52 0c-23 0-42-8-58-24-16-16-24-35-24-58l0-274c0-23 8-42 24-58 16-16 35-24 58-24z"/>
    </symbol>
  
    <symbol id="icon-vimeo" viewBox="0 0 512 512">
      <path d="m488 148c-2 45-33 107-95 186-63 82-117 123-160 123-27 0-50-25-69-75-8-30-21-76-37-138-14-50-29-75-45-75-4 0-16 8-37 22l-22-28c5-4 15-13 31-27 16-15 29-26 37-33 30-27 53-41 69-42 18-2 33 3 44 16 11 12 19 31 23 58 9 55 15 90 19 106 10 48 22 72 34 72 10 0 25-16 44-46 20-31 30-55 31-71 3-26-7-39-31-39-11 0-22 2-34 7 23-75 66-111 131-109 48 1 70 32 67 93z"/>
    </symbol>
  
    <symbol id="icon-right" viewBox="0 0 512 512">
      <path d="m144 445c0 0 183-189 183-189c0 0-183-190-183-190c-9-9-9-18 0-25c8-9 17-9 24 0c0 0 201 202 201 202c8 9 8 17 0 25c0 0-201 202-201 202c-7 9-16 9-24 0c-9-7-9-16 0-25"/>
    </symbol>
  
    <symbol id="icon-cancel" viewBox="0 0 512 512">
      <path d="m501 41l-30-30l-215 216l-215-216l-30 30l216 215l-216 215l30 30l215-216l215 216l30-30l-216-215z"/>
    </symbol>
  
</svg>
